<mxfile host="65bd71144e">
    <diagram id="dLMsSK9_yHR80KZ66c7M" name="Arch">
        <mxGraphModel dx="999" dy="568" grid="1" gridSize="10" guides="1" tooltips="1" connect="1" arrows="1" fold="1" page="1" pageScale="1" pageWidth="850" pageHeight="1100" math="0" shadow="0">
            <root>
                <mxCell id="0"/>
                <mxCell id="1" parent="0"/>
                <mxCell id="5" value="GameManager" style="swimlane;fontStyle=4;align=center;verticalAlign=top;childLayout=stackLayout;horizontal=1;startSize=30;horizontalStack=0;resizeParent=1;resizeParentMax=0;resizeLast=0;collapsible=0;marginBottom=0;html=1;" parent="1" vertex="1">
                    <mxGeometry x="200" y="150" width="290" height="248" as="geometry"/>
                </mxCell>
                <mxCell id="7" value="" style="line;strokeWidth=1;fillColor=none;align=left;verticalAlign=middle;spacingTop=-1;spacingLeft=3;spacingRight=3;rotatable=0;labelPosition=right;points=[];portConstraint=eastwest;" parent="5" vertex="1">
                    <mxGeometry y="30" width="290" height="8" as="geometry"/>
                </mxCell>
                <mxCell id="8" value="internal structure" style="html=1;strokeColor=none;fillColor=none;align=center;verticalAlign=middle;spacingLeft=4;spacingRight=4;rotatable=0;points=[[0,0.5],[1,0.5]];resizeWidth=1;" parent="5" vertex="1">
                    <mxGeometry y="38" width="290" height="20" as="geometry"/>
                </mxCell>
                <mxCell id="9" value="" style="swimlane;fontStyle=1;align=center;verticalAlign=top;horizontal=1;startSize=0;collapsible=0;marginBottom=0;html=1;strokeColor=none;fillColor=none;" parent="5" vertex="1">
                    <mxGeometry y="58" width="290" height="190" as="geometry"/>
                </mxCell>
                <mxCell id="10" value="SceneManager" style="html=1;align=center;verticalAlign=middle;rotatable=0;" parent="9" vertex="1">
                    <mxGeometry width="100" height="30" relative="1" as="geometry">
                        <mxPoint x="20" y="27" as="offset"/>
                    </mxGeometry>
                </mxCell>
                <mxCell id="15" value="" style="swimlane;fontStyle=1;align=center;verticalAlign=top;horizontal=1;startSize=0;collapsible=0;marginBottom=0;html=1;strokeColor=none;fillColor=none;" parent="9" vertex="1">
                    <mxGeometry x="150" y="17" width="140" height="50" as="geometry"/>
                </mxCell>
                <mxCell id="16" value="InputManager" style="html=1;align=center;verticalAlign=middle;rotatable=0;" parent="15" vertex="1">
                    <mxGeometry width="100" height="30" relative="1" as="geometry">
                        <mxPoint x="10" y="10" as="offset"/>
                    </mxGeometry>
                </mxCell>
                <mxCell id="11" value="" style="swimlane;fontStyle=1;align=center;verticalAlign=top;horizontal=1;startSize=0;collapsible=0;marginBottom=0;html=1;strokeColor=none;fillColor=none;" parent="9" vertex="1">
                    <mxGeometry x="-10" y="52" width="300" height="138" as="geometry"/>
                </mxCell>
                <mxCell id="12" value="SoundManager" style="html=1;align=center;verticalAlign=middle;rotatable=0;" parent="11" vertex="1">
                    <mxGeometry width="100" height="30" relative="1" as="geometry">
                        <mxPoint x="30" y="32" as="offset"/>
                    </mxGeometry>
                </mxCell>
                <mxCell id="13" value="" style="swimlane;fontStyle=1;align=center;verticalAlign=top;horizontal=1;startSize=0;collapsible=0;marginBottom=0;html=1;strokeColor=none;fillColor=none;" parent="11" vertex="1">
                    <mxGeometry x="160" y="22" width="140" height="68" as="geometry"/>
                </mxCell>
                <mxCell id="14" value="EventManager" style="html=1;align=center;verticalAlign=middle;rotatable=0;" parent="13" vertex="1">
                    <mxGeometry width="100" height="30" relative="1" as="geometry">
                        <mxPoint x="10" y="10" as="offset"/>
                    </mxGeometry>
                </mxCell>
                <mxCell id="17" value="" style="swimlane;fontStyle=1;align=center;verticalAlign=top;horizontal=1;startSize=0;collapsible=0;marginBottom=0;html=1;strokeColor=none;fillColor=none;" parent="11" vertex="1">
                    <mxGeometry x="90" y="80" width="140" height="50" as="geometry"/>
                </mxCell>
                <mxCell id="18" value="ScoreManager" style="html=1;align=center;verticalAlign=middle;rotatable=0;" parent="17" vertex="1">
                    <mxGeometry width="100" height="30" relative="1" as="geometry">
                        <mxPoint x="10" y="10" as="offset"/>
                    </mxGeometry>
                </mxCell>
            </root>
        </mxGraphModel>
    </diagram>
    <diagram id="UeCo9gdbuVkXFUiJQiTw" name="Event">
        <mxGraphModel dx="999" dy="568" grid="1" gridSize="10" guides="1" tooltips="1" connect="1" arrows="1" fold="1" page="1" pageScale="1" pageWidth="850" pageHeight="1100" math="0" shadow="0">
            <root>
                <mxCell id="0"/>
                <mxCell id="1" parent="0"/>
                <mxCell id="PHhVcRFvXUqSi-1Uwi1P-12" value="&lt;b style=&quot;font-size: 15px;&quot;&gt;&lt;font style=&quot;font-size: 15px;&quot;&gt;EventManager&lt;/font&gt;&lt;/b&gt;" style="swimlane;fontStyle=0;align=center;verticalAlign=top;childLayout=stackLayout;horizontal=1;startSize=55;horizontalStack=0;resizeParent=1;resizeParentMax=0;resizeLast=0;collapsible=0;marginBottom=0;html=1;fontSize=15;" parent="1" vertex="1">
                    <mxGeometry x="225" y="550" width="220" height="190" as="geometry"/>
                </mxCell>
                <mxCell id="PHhVcRFvXUqSi-1Uwi1P-13" value="attributes" style="text;html=1;strokeColor=none;fillColor=none;align=center;verticalAlign=middle;spacingLeft=4;spacingRight=4;overflow=hidden;rotatable=0;points=[[0,0.5],[1,0.5]];portConstraint=eastwest;fontSize=14;" parent="PHhVcRFvXUqSi-1Uwi1P-12" vertex="1">
                    <mxGeometry y="55" width="220" height="20" as="geometry"/>
                </mxCell>
                <mxCell id="PHhVcRFvXUqSi-1Uwi1P-14" value="- observers: Set&amp;lt;Observer&amp;gt;" style="text;html=1;strokeColor=none;fillColor=none;align=left;verticalAlign=middle;spacingLeft=4;spacingRight=4;overflow=hidden;rotatable=0;points=[[0,0.5],[1,0.5]];portConstraint=eastwest;fontSize=14;" parent="PHhVcRFvXUqSi-1Uwi1P-12" vertex="1">
                    <mxGeometry y="75" width="220" height="20" as="geometry"/>
                </mxCell>
                <mxCell id="PHhVcRFvXUqSi-1Uwi1P-17" value="" style="line;strokeWidth=1;fillColor=none;align=left;verticalAlign=middle;spacingTop=-1;spacingLeft=3;spacingRight=3;rotatable=0;labelPosition=right;points=[];portConstraint=eastwest;" parent="PHhVcRFvXUqSi-1Uwi1P-12" vertex="1">
                    <mxGeometry y="95" width="220" height="8" as="geometry"/>
                </mxCell>
                <mxCell id="PHhVcRFvXUqSi-1Uwi1P-18" value="operations" style="text;html=1;strokeColor=none;fillColor=none;align=center;verticalAlign=middle;spacingLeft=4;spacingRight=4;overflow=hidden;rotatable=0;points=[[0,0.5],[1,0.5]];portConstraint=eastwest;fontSize=14;" parent="PHhVcRFvXUqSi-1Uwi1P-12" vertex="1">
                    <mxGeometry y="103" width="220" height="20" as="geometry"/>
                </mxCell>
                <mxCell id="PHhVcRFvXUqSi-1Uwi1P-19" value="+ subscribe(o: IObserver): void&lt;br style=&quot;font-size: 14px;&quot;&gt;+ subscribe(o: IObserver): void&lt;br style=&quot;font-size: 14px;&quot;&gt;+ notify(event: number): void" style="text;html=1;strokeColor=none;fillColor=none;align=left;verticalAlign=middle;spacingLeft=4;spacingRight=4;overflow=hidden;rotatable=0;points=[[0,0.5],[1,0.5]];portConstraint=eastwest;fontSize=14;" parent="PHhVcRFvXUqSi-1Uwi1P-12" vertex="1">
                    <mxGeometry y="123" width="220" height="67" as="geometry"/>
                </mxCell>
                <mxCell id="PHhVcRFvXUqSi-1Uwi1P-20" value="&amp;lt;&amp;lt;interface&amp;gt;&amp;gt;&lt;br&gt;&lt;b&gt;IObserver&lt;/b&gt;" style="swimlane;fontStyle=0;align=center;verticalAlign=top;childLayout=stackLayout;horizontal=1;startSize=55;horizontalStack=0;resizeParent=1;resizeParentMax=0;resizeLast=0;collapsible=0;marginBottom=0;html=1;fontSize=15;" parent="1" vertex="1">
                    <mxGeometry x="235" y="160" width="200" height="103" as="geometry"/>
                </mxCell>
                <mxCell id="PHhVcRFvXUqSi-1Uwi1P-25" value="" style="line;strokeWidth=1;fillColor=none;align=left;verticalAlign=middle;spacingTop=-1;spacingLeft=3;spacingRight=3;rotatable=0;labelPosition=right;points=[];portConstraint=eastwest;fontSize=15;" parent="PHhVcRFvXUqSi-1Uwi1P-20" vertex="1">
                    <mxGeometry y="55" width="200" height="8" as="geometry"/>
                </mxCell>
                <mxCell id="PHhVcRFvXUqSi-1Uwi1P-26" value="operations" style="text;html=1;strokeColor=none;fillColor=none;align=center;verticalAlign=middle;spacingLeft=4;spacingRight=4;overflow=hidden;rotatable=0;points=[[0,0.5],[1,0.5]];portConstraint=eastwest;fontSize=15;" parent="PHhVcRFvXUqSi-1Uwi1P-20" vertex="1">
                    <mxGeometry y="63" width="200" height="20" as="geometry"/>
                </mxCell>
                <mxCell id="PHhVcRFvXUqSi-1Uwi1P-27" value="+ onNotify(e: number): void" style="text;html=1;strokeColor=none;fillColor=none;align=left;verticalAlign=middle;spacingLeft=4;spacingRight=4;overflow=hidden;rotatable=0;points=[[0,0.5],[1,0.5]];portConstraint=eastwest;fontSize=15;" parent="PHhVcRFvXUqSi-1Uwi1P-20" vertex="1">
                    <mxGeometry y="83" width="200" height="20" as="geometry"/>
                </mxCell>
                <mxCell id="PHhVcRFvXUqSi-1Uwi1P-28" value="Ball" style="html=1;align=center;verticalAlign=top;rounded=1;absoluteArcSize=1;arcSize=10;dashed=0;fontSize=15;" parent="1" vertex="1">
                    <mxGeometry x="10" y="380" width="140" height="40" as="geometry"/>
                </mxCell>
                <mxCell id="PHhVcRFvXUqSi-1Uwi1P-29" value="Star" style="html=1;align=center;verticalAlign=top;rounded=1;absoluteArcSize=1;arcSize=10;dashed=0;fontSize=15;" parent="1" vertex="1">
                    <mxGeometry x="350" y="380" width="140" height="40" as="geometry"/>
                </mxCell>
                <mxCell id="PHhVcRFvXUqSi-1Uwi1P-30" value="PlayScene" style="html=1;align=center;verticalAlign=top;rounded=1;absoluteArcSize=1;arcSize=10;dashed=0;fontSize=15;" parent="1" vertex="1">
                    <mxGeometry x="520" y="380" width="140" height="40" as="geometry"/>
                </mxCell>
                <mxCell id="PHhVcRFvXUqSi-1Uwi1P-31" value="" style="endArrow=block;startArrow=none;endFill=0;startFill=0;endSize=8;html=1;verticalAlign=bottom;dashed=1;labelBackgroundColor=none;fontSize=15;edgeStyle=orthogonalEdgeStyle;" parent="1" source="PHhVcRFvXUqSi-1Uwi1P-28" target="PHhVcRFvXUqSi-1Uwi1P-20" edge="1">
                    <mxGeometry width="160" relative="1" as="geometry">
                        <mxPoint x="260" y="280" as="sourcePoint"/>
                        <mxPoint x="420" y="280" as="targetPoint"/>
                        <Array as="points">
                            <mxPoint x="80" y="220"/>
                        </Array>
                    </mxGeometry>
                </mxCell>
                <mxCell id="PHhVcRFvXUqSi-1Uwi1P-32" value="" style="endArrow=block;startArrow=none;endFill=0;startFill=0;endSize=8;html=1;verticalAlign=bottom;dashed=1;labelBackgroundColor=none;fontSize=15;edgeStyle=orthogonalEdgeStyle;" parent="1" source="PHhVcRFvXUqSi-1Uwi1P-29" target="PHhVcRFvXUqSi-1Uwi1P-20" edge="1">
                    <mxGeometry width="160" relative="1" as="geometry">
                        <mxPoint x="145.03144654088055" y="330" as="sourcePoint"/>
                        <mxPoint x="187.04402515723268" y="163" as="targetPoint"/>
                        <Array as="points">
                            <mxPoint x="420" y="330"/>
                            <mxPoint x="350" y="330"/>
                        </Array>
                    </mxGeometry>
                </mxCell>
                <mxCell id="PHhVcRFvXUqSi-1Uwi1P-33" value="" style="endArrow=block;startArrow=none;endFill=0;startFill=0;endSize=8;html=1;verticalAlign=bottom;dashed=1;labelBackgroundColor=none;fontSize=15;edgeStyle=orthogonalEdgeStyle;" parent="1" source="PHhVcRFvXUqSi-1Uwi1P-30" target="PHhVcRFvXUqSi-1Uwi1P-20" edge="1">
                    <mxGeometry width="160" relative="1" as="geometry">
                        <mxPoint x="284.1653160453809" y="400" as="sourcePoint"/>
                        <mxPoint x="215.02431118314428" y="163" as="targetPoint"/>
                        <Array as="points">
                            <mxPoint x="590" y="220"/>
                        </Array>
                    </mxGeometry>
                </mxCell>
                <mxCell id="PHhVcRFvXUqSi-1Uwi1P-34" value="&amp;lt;&amp;lt;subscribe&amp;gt;&amp;gt;" style="endArrow=open;startArrow=none;endFill=0;startFill=0;endSize=8;html=1;verticalAlign=bottom;dashed=1;labelBackgroundColor=none;fontSize=14;exitX=0.5;exitY=1;exitDx=0;exitDy=0;edgeStyle=orthogonalEdgeStyle;dashPattern=12 12;" parent="1" source="PHhVcRFvXUqSi-1Uwi1P-28" target="PHhVcRFvXUqSi-1Uwi1P-12" edge="1">
                    <mxGeometry x="0.6364" width="160" relative="1" as="geometry">
                        <mxPoint x="260" y="280" as="sourcePoint"/>
                        <mxPoint x="420" y="280" as="targetPoint"/>
                        <mxPoint as="offset"/>
                        <Array as="points">
                            <mxPoint x="80" y="645"/>
                        </Array>
                    </mxGeometry>
                </mxCell>
                <mxCell id="PHhVcRFvXUqSi-1Uwi1P-35" value="&amp;lt;&amp;lt;subscribe&amp;gt;&amp;gt;" style="endArrow=open;startArrow=none;endFill=0;startFill=0;endSize=8;html=1;verticalAlign=bottom;dashed=1;labelBackgroundColor=none;fontSize=14;edgeStyle=orthogonalEdgeStyle;dashPattern=12 12;" parent="1" source="PHhVcRFvXUqSi-1Uwi1P-29" target="PHhVcRFvXUqSi-1Uwi1P-12" edge="1">
                    <mxGeometry x="-0.7273" width="160" relative="1" as="geometry">
                        <mxPoint x="103.98000000000002" y="400.4" as="sourcePoint"/>
                        <mxPoint x="400" y="214.19363578148864" as="targetPoint"/>
                        <mxPoint as="offset"/>
                        <Array as="points">
                            <mxPoint x="420" y="480"/>
                            <mxPoint x="350" y="480"/>
                        </Array>
                    </mxGeometry>
                </mxCell>
                <mxCell id="PHhVcRFvXUqSi-1Uwi1P-36" value="&amp;lt;&amp;lt;subscribe&amp;gt;&amp;gt;" style="endArrow=open;startArrow=none;endFill=0;startFill=0;endSize=8;html=1;verticalAlign=bottom;dashed=1;labelBackgroundColor=none;fontSize=14;edgeStyle=orthogonalEdgeStyle;dashPattern=12 12;" parent="1" source="PHhVcRFvXUqSi-1Uwi1P-30" target="PHhVcRFvXUqSi-1Uwi1P-12" edge="1">
                    <mxGeometry x="0.5733" width="160" relative="1" as="geometry">
                        <mxPoint x="113.98000000000002" y="410.4" as="sourcePoint"/>
                        <mxPoint x="410" y="224.19363578148864" as="targetPoint"/>
                        <Array as="points">
                            <mxPoint x="590" y="645"/>
                        </Array>
                        <mxPoint as="offset"/>
                    </mxGeometry>
                </mxCell>
                <mxCell id="FwIeXlw8YO7BpQBVAo4f-1" value="BasketController" style="html=1;align=center;verticalAlign=top;rounded=1;absoluteArcSize=1;arcSize=10;dashed=0;fontSize=15;" vertex="1" parent="1">
                    <mxGeometry x="180" y="380" width="140" height="40" as="geometry"/>
                </mxCell>
                <mxCell id="FwIeXlw8YO7BpQBVAo4f-2" value="" style="endArrow=block;startArrow=none;endFill=0;startFill=0;endSize=8;html=1;verticalAlign=bottom;dashed=1;labelBackgroundColor=none;fontSize=15;edgeStyle=orthogonalEdgeStyle;" edge="1" parent="1" source="FwIeXlw8YO7BpQBVAo4f-1" target="PHhVcRFvXUqSi-1Uwi1P-20">
                    <mxGeometry width="160" relative="1" as="geometry">
                        <mxPoint x="397.6823338735819" y="390" as="sourcePoint"/>
                        <mxPoint x="251.71799027552674" y="153" as="targetPoint"/>
                        <Array as="points">
                            <mxPoint x="250" y="330"/>
                            <mxPoint x="320" y="330"/>
                        </Array>
                    </mxGeometry>
                </mxCell>
                <mxCell id="FwIeXlw8YO7BpQBVAo4f-3" value="&amp;lt;&amp;lt;subscribe&amp;gt;&amp;gt;" style="endArrow=open;startArrow=none;endFill=0;startFill=0;endSize=8;html=1;verticalAlign=bottom;dashed=1;labelBackgroundColor=none;fontSize=14;edgeStyle=orthogonalEdgeStyle;dashPattern=12 12;" edge="1" parent="1" source="FwIeXlw8YO7BpQBVAo4f-1" target="PHhVcRFvXUqSi-1Uwi1P-12">
                    <mxGeometry x="-0.7143" width="160" relative="1" as="geometry">
                        <mxPoint x="417.5471698113208" y="390" as="sourcePoint"/>
                        <mxPoint x="474.15094339622647" y="240" as="targetPoint"/>
                        <mxPoint as="offset"/>
                        <Array as="points">
                            <mxPoint x="250" y="480"/>
                            <mxPoint x="320" y="480"/>
                        </Array>
                    </mxGeometry>
                </mxCell>
            </root>
        </mxGraphModel>
    </diagram>
    <diagram id="Fi_S-MpPXcDR_gEBMOEa" name="FSM">
        <mxGraphModel dx="1249" dy="614" grid="1" gridSize="10" guides="1" tooltips="1" connect="1" arrows="1" fold="1" page="1" pageScale="1" pageWidth="850" pageHeight="1100" math="0" shadow="0">
            <root>
                <mxCell id="0"/>
                <mxCell id="1" parent="0"/>
                <mxCell id="GV9Hzz9nq0YfbqKlbJhZ-1" value="idle" style="ellipse;whiteSpace=wrap;html=1;aspect=fixed;fontSize=14;strokeWidth=6;" parent="1" vertex="1">
                    <mxGeometry x="130" y="230" width="70" height="70" as="geometry"/>
                </mxCell>
                <mxCell id="GV9Hzz9nq0YfbqKlbJhZ-3" value="snipe" style="ellipse;whiteSpace=wrap;html=1;aspect=fixed;fontSize=14;strokeWidth=6;" parent="1" vertex="1">
                    <mxGeometry x="330" y="230" width="70" height="70" as="geometry"/>
                </mxCell>
                <mxCell id="GV9Hzz9nq0YfbqKlbJhZ-4" value="fly" style="ellipse;whiteSpace=wrap;html=1;aspect=fixed;fontSize=14;" parent="1" vertex="1">
                    <mxGeometry x="510" y="230" width="70" height="70" as="geometry"/>
                </mxCell>
                <mxCell id="PyHOD5gXmww9kOyOL-VJ-1" value="demo" style="ellipse;whiteSpace=wrap;html=1;aspect=fixed;fontSize=14;strokeWidth=5;" vertex="1" parent="1">
                    <mxGeometry x="250" y="80" width="70" height="70" as="geometry"/>
                </mxCell>
                <mxCell id="PyHOD5gXmww9kOyOL-VJ-2" value="Enter CurBasket" style="endArrow=classic;html=1;" edge="1" parent="1" source="GV9Hzz9nq0YfbqKlbJhZ-1" target="GV9Hzz9nq0YfbqKlbJhZ-3">
                    <mxGeometry width="50" height="50" relative="1" as="geometry">
                        <mxPoint x="310" y="320" as="sourcePoint"/>
                        <mxPoint x="360" y="270" as="targetPoint"/>
                    </mxGeometry>
                </mxCell>
                <mxCell id="PyHOD5gXmww9kOyOL-VJ-3" value="Mouse Leave" style="endArrow=classic;html=1;" edge="1" parent="1" source="GV9Hzz9nq0YfbqKlbJhZ-3" target="GV9Hzz9nq0YfbqKlbJhZ-4">
                    <mxGeometry width="50" height="50" relative="1" as="geometry">
                        <mxPoint x="210" y="275" as="sourcePoint"/>
                        <mxPoint x="350" y="275" as="targetPoint"/>
                    </mxGeometry>
                </mxCell>
                <mxCell id="PyHOD5gXmww9kOyOL-VJ-4" value="Enter StartScene" style="endArrow=classic;html=1;" edge="1" parent="1" source="GV9Hzz9nq0YfbqKlbJhZ-1" target="PyHOD5gXmww9kOyOL-VJ-1">
                    <mxGeometry width="50" height="50" relative="1" as="geometry">
                        <mxPoint x="210" y="275" as="sourcePoint"/>
                        <mxPoint x="340" y="275" as="targetPoint"/>
                    </mxGeometry>
                </mxCell>
                <mxCell id="PyHOD5gXmww9kOyOL-VJ-5" value="Mouse Move" style="endArrow=classic;html=1;" edge="1" parent="1" source="GV9Hzz9nq0YfbqKlbJhZ-3" target="GV9Hzz9nq0YfbqKlbJhZ-3">
                    <mxGeometry width="50" height="50" relative="1" as="geometry">
                        <mxPoint x="410" y="275" as="sourcePoint"/>
                        <mxPoint x="520" y="275" as="targetPoint"/>
                        <Array as="points">
                            <mxPoint x="390" y="190"/>
                        </Array>
                    </mxGeometry>
                </mxCell>
                <mxCell id="PyHOD5gXmww9kOyOL-VJ-7" value="Fly Complete" style="endArrow=classic;html=1;" edge="1" parent="1" source="GV9Hzz9nq0YfbqKlbJhZ-4" target="GV9Hzz9nq0YfbqKlbJhZ-1">
                    <mxGeometry width="50" height="50" relative="1" as="geometry">
                        <mxPoint x="196.9188347148372" y="247.71328739581486" as="sourcePoint"/>
                        <mxPoint x="273.13567333559513" y="152.3304083305061" as="targetPoint"/>
                        <Array as="points">
                            <mxPoint x="360" y="350"/>
                        </Array>
                    </mxGeometry>
                </mxCell>
                <mxCell id="PyHOD5gXmww9kOyOL-VJ-8" value="" style="endArrow=classic;html=1;entryX=0;entryY=0.5;entryDx=0;entryDy=0;" edge="1" parent="1" target="GV9Hzz9nq0YfbqKlbJhZ-1">
                    <mxGeometry width="50" height="50" relative="1" as="geometry">
                        <mxPoint x="40" y="265" as="sourcePoint"/>
                        <mxPoint x="340" y="275" as="targetPoint"/>
                    </mxGeometry>
                </mxCell>
                <mxCell id="PyHOD5gXmww9kOyOL-VJ-10" value="transit" style="ellipse;whiteSpace=wrap;html=1;aspect=fixed;fontSize=14;" vertex="1" parent="1">
                    <mxGeometry x="430" y="540" width="70" height="70" as="geometry"/>
                </mxCell>
                <mxCell id="PyHOD5gXmww9kOyOL-VJ-11" value="snipe" style="ellipse;whiteSpace=wrap;html=1;aspect=fixed;fontSize=14;" vertex="1" parent="1">
                    <mxGeometry x="590" y="610" width="70" height="70" as="geometry"/>
                </mxCell>
                <mxCell id="PyHOD5gXmww9kOyOL-VJ-12" value="" style="endArrow=classic;html=1;entryX=0;entryY=0.5;entryDx=0;entryDy=0;startArrow=none;" edge="1" parent="1" source="PyHOD5gXmww9kOyOL-VJ-9">
                    <mxGeometry width="50" height="50" relative="1" as="geometry">
                        <mxPoint x="102" y="644.5" as="sourcePoint"/>
                        <mxPoint x="192" y="644.5" as="targetPoint"/>
                    </mxGeometry>
                </mxCell>
                <mxCell id="PyHOD5gXmww9kOyOL-VJ-13" value="Ball Enters NextBasket" style="endArrow=classic;html=1;" edge="1" parent="1" source="PyHOD5gXmww9kOyOL-VJ-9" target="PyHOD5gXmww9kOyOL-VJ-10">
                    <mxGeometry width="50" height="50" relative="1" as="geometry">
                        <mxPoint x="242" y="655" as="sourcePoint"/>
                        <mxPoint x="202" y="654.5" as="targetPoint"/>
                    </mxGeometry>
                </mxCell>
                <mxCell id="PyHOD5gXmww9kOyOL-VJ-14" value="Mouse Move" style="endArrow=classic;html=1;" edge="1" parent="1" source="PyHOD5gXmww9kOyOL-VJ-9" target="PyHOD5gXmww9kOyOL-VJ-11">
                    <mxGeometry width="50" height="50" relative="1" as="geometry">
                        <mxPoint x="272" y="655" as="sourcePoint"/>
                        <mxPoint x="352" y="655" as="targetPoint"/>
                        <Array as="points">
                            <mxPoint x="410" y="650"/>
                        </Array>
                    </mxGeometry>
                </mxCell>
                <mxCell id="PyHOD5gXmww9kOyOL-VJ-15" value="Mouse Leave" style="endArrow=classic;html=1;" edge="1" parent="1" source="PyHOD5gXmww9kOyOL-VJ-11" target="PyHOD5gXmww9kOyOL-VJ-9">
                    <mxGeometry x="-0.0412" y="10" width="50" height="50" relative="1" as="geometry">
                        <mxPoint x="272" y="655" as="sourcePoint"/>
                        <mxPoint x="352" y="655" as="targetPoint"/>
                        <Array as="points">
                            <mxPoint x="410" y="740"/>
                        </Array>
                        <mxPoint as="offset"/>
                    </mxGeometry>
                </mxCell>
                <mxCell id="PyHOD5gXmww9kOyOL-VJ-9" value="idle" style="ellipse;whiteSpace=wrap;html=1;aspect=fixed;fontSize=14;strokeWidth=6;" vertex="1" parent="1">
                    <mxGeometry x="142" y="610" width="70" height="70" as="geometry"/>
                </mxCell>
                <mxCell id="PyHOD5gXmww9kOyOL-VJ-18" value="&lt;font style=&quot;font-size: 15px;&quot;&gt;&lt;b&gt;Basket&lt;/b&gt;&lt;/font&gt;" style="shape=umlFrame;whiteSpace=wrap;html=1;width=120;height=30;boundedLbl=1;verticalAlign=middle;align=center;spacingLeft=5;strokeWidth=6;" vertex="1" parent="1">
                    <mxGeometry x="20" y="500" width="710" height="290" as="geometry"/>
                </mxCell>
                <mxCell id="PyHOD5gXmww9kOyOL-VJ-17" value="" style="endArrow=classic;html=1;entryX=0;entryY=0.5;entryDx=0;entryDy=0;" edge="1" parent="1">
                    <mxGeometry width="50" height="50" relative="1" as="geometry">
                        <mxPoint x="50" y="644.5799999999999" as="sourcePoint"/>
                        <mxPoint x="140" y="644.5799999999999" as="targetPoint"/>
                    </mxGeometry>
                </mxCell>
                <mxCell id="PyHOD5gXmww9kOyOL-VJ-19" value="&lt;font style=&quot;font-size: 15px;&quot;&gt;&lt;b&gt;Ball&lt;/b&gt;&lt;/font&gt;" style="shape=umlFrame;whiteSpace=wrap;html=1;width=120;height=30;boundedLbl=1;verticalAlign=middle;align=center;spacingLeft=5;strokeWidth=6;" vertex="1" parent="1">
                    <mxGeometry x="20" y="70" width="710" height="350" as="geometry"/>
                </mxCell>
                <mxCell id="PyHOD5gXmww9kOyOL-VJ-20" value="Transition Complete" style="endArrow=classic;html=1;" edge="1" parent="1" source="PyHOD5gXmww9kOyOL-VJ-10" target="PyHOD5gXmww9kOyOL-VJ-9">
                    <mxGeometry x="0.1639" y="-10" width="50" height="50" relative="1" as="geometry">
                        <mxPoint x="60" y="654.5799999999999" as="sourcePoint"/>
                        <mxPoint x="150" y="654.5799999999999" as="targetPoint"/>
                        <Array as="points">
                            <mxPoint x="290" y="570"/>
                        </Array>
                        <mxPoint x="5" y="-2" as="offset"/>
                    </mxGeometry>
                </mxCell>
                <mxCell id="z7NbTAL-cRkpkur6P6up-1" value="disable" style="ellipse;whiteSpace=wrap;html=1;aspect=fixed;fontSize=14;strokeWidth=6;" vertex="1" parent="1">
                    <mxGeometry x="200" y="920" width="70" height="70" as="geometry"/>
                </mxCell>
                <mxCell id="z7NbTAL-cRkpkur6P6up-2" value="" style="endArrow=classic;html=1;entryX=0;entryY=0.5;entryDx=0;entryDy=0;" edge="1" parent="1">
                    <mxGeometry width="50" height="50" relative="1" as="geometry">
                        <mxPoint x="110" y="954.41" as="sourcePoint"/>
                        <mxPoint x="200" y="954.41" as="targetPoint"/>
                    </mxGeometry>
                </mxCell>
                <mxCell id="z7NbTAL-cRkpkur6P6up-3" value="enable" style="ellipse;whiteSpace=wrap;html=1;aspect=fixed;fontSize=14;strokeWidth=6;" vertex="1" parent="1">
                    <mxGeometry x="460" y="920" width="70" height="70" as="geometry"/>
                </mxCell>
                <mxCell id="z7NbTAL-cRkpkur6P6up-4" value="Ball Hit NextBasket" style="endArrow=classic;html=1;" edge="1" parent="1" source="z7NbTAL-cRkpkur6P6up-1" target="z7NbTAL-cRkpkur6P6up-3">
                    <mxGeometry width="50" height="50" relative="1" as="geometry">
                        <mxPoint x="320" y="910" as="sourcePoint"/>
                        <mxPoint x="410" y="910" as="targetPoint"/>
                        <Array as="points">
                            <mxPoint x="360" y="910"/>
                        </Array>
                    </mxGeometry>
                </mxCell>
                <mxCell id="z7NbTAL-cRkpkur6P6up-5" value="Ball Hit Star" style="endArrow=classic;html=1;" edge="1" parent="1" source="z7NbTAL-cRkpkur6P6up-3" target="z7NbTAL-cRkpkur6P6up-1">
                    <mxGeometry width="50" height="50" relative="1" as="geometry">
                        <mxPoint x="360" y="1000" as="sourcePoint"/>
                        <mxPoint x="450" y="1000" as="targetPoint"/>
                        <Array as="points">
                            <mxPoint x="360" y="990"/>
                        </Array>
                    </mxGeometry>
                </mxCell>
                <mxCell id="z7NbTAL-cRkpkur6P6up-6" value="&lt;font style=&quot;font-size: 15px;&quot;&gt;&lt;b&gt;Star&lt;/b&gt;&lt;/font&gt;" style="shape=umlFrame;whiteSpace=wrap;html=1;width=120;height=30;boundedLbl=1;verticalAlign=middle;align=center;spacingLeft=5;strokeWidth=6;" vertex="1" parent="1">
                    <mxGeometry x="20" y="840" width="710" height="210" as="geometry"/>
                </mxCell>
            </root>
        </mxGraphModel>
    </diagram>
    <diagram id="_JVMYSuvx_ROHwsICecY" name="StateMachine">
        <mxGraphModel dx="1427" dy="701" grid="1" gridSize="10" guides="1" tooltips="1" connect="1" arrows="1" fold="1" page="1" pageScale="1" pageWidth="850" pageHeight="1100" math="0" shadow="0">
            <root>
                <mxCell id="0"/>
                <mxCell id="1" parent="0"/>
                <mxCell id="bVlOLT0SivNGjFb0DIh4-1" value="&lt;b style=&quot;font-size: 15px;&quot;&gt;&lt;font style=&quot;font-size: 15px;&quot;&gt;StateMachine&lt;/font&gt;&lt;/b&gt;" style="swimlane;fontStyle=0;align=center;verticalAlign=top;childLayout=stackLayout;horizontal=1;startSize=55;horizontalStack=0;resizeParent=1;resizeParentMax=0;resizeLast=0;collapsible=0;marginBottom=0;html=1;fontSize=15;" vertex="1" parent="1">
                    <mxGeometry x="405" y="270" width="290" height="275" as="geometry"/>
                </mxCell>
                <mxCell id="bVlOLT0SivNGjFb0DIh4-2" value="attributes" style="text;html=1;strokeColor=none;fillColor=none;align=center;verticalAlign=middle;spacingLeft=4;spacingRight=4;overflow=hidden;rotatable=0;points=[[0,0.5],[1,0.5]];portConstraint=eastwest;fontSize=14;" vertex="1" parent="bVlOLT0SivNGjFb0DIh4-1">
                    <mxGeometry y="55" width="290" height="20" as="geometry"/>
                </mxCell>
                <mxCell id="bVlOLT0SivNGjFb0DIh4-3" value="&lt;div&gt;- id: string&lt;br&gt;&lt;/div&gt;&lt;div&gt;- states = new Map&amp;lt;string, IState&amp;gt;()&lt;/div&gt;&lt;div&gt;- currentState?: IState&lt;/div&gt;&lt;div&gt;- context?: object&lt;/div&gt;&lt;div&gt;- changeStateQueue: string[]&lt;/div&gt;" style="text;html=1;strokeColor=none;fillColor=none;align=left;verticalAlign=middle;spacingLeft=4;spacingRight=4;overflow=hidden;rotatable=0;points=[[0,0.5],[1,0.5]];portConstraint=eastwest;fontSize=14;" vertex="1" parent="bVlOLT0SivNGjFb0DIh4-1">
                    <mxGeometry y="75" width="290" height="105" as="geometry"/>
                </mxCell>
                <mxCell id="bVlOLT0SivNGjFb0DIh4-4" value="" style="line;strokeWidth=1;fillColor=none;align=left;verticalAlign=middle;spacingTop=-1;spacingLeft=3;spacingRight=3;rotatable=0;labelPosition=right;points=[];portConstraint=eastwest;" vertex="1" parent="bVlOLT0SivNGjFb0DIh4-1">
                    <mxGeometry y="180" width="290" height="8" as="geometry"/>
                </mxCell>
                <mxCell id="bVlOLT0SivNGjFb0DIh4-5" value="operations" style="text;html=1;strokeColor=none;fillColor=none;align=center;verticalAlign=middle;spacingLeft=4;spacingRight=4;overflow=hidden;rotatable=0;points=[[0,0.5],[1,0.5]];portConstraint=eastwest;fontSize=14;" vertex="1" parent="bVlOLT0SivNGjFb0DIh4-1">
                    <mxGeometry y="188" width="290" height="20" as="geometry"/>
                </mxCell>
                <mxCell id="bVlOLT0SivNGjFb0DIh4-6" value="+ addState(s: string, config: IState): void&lt;br style=&quot;font-size: 14px;&quot;&gt;+ setState(s: string): void&lt;br style=&quot;font-size: 14px;&quot;&gt;+ update(dt: number): void" style="text;html=1;strokeColor=none;fillColor=none;align=left;verticalAlign=middle;spacingLeft=4;spacingRight=4;overflow=hidden;rotatable=0;points=[[0,0.5],[1,0.5]];portConstraint=eastwest;fontSize=14;" vertex="1" parent="bVlOLT0SivNGjFb0DIh4-1">
                    <mxGeometry y="208" width="290" height="67" as="geometry"/>
                </mxCell>
                <mxCell id="bVlOLT0SivNGjFb0DIh4-7" value="&amp;lt;&amp;lt;interface&amp;gt;&amp;gt;&lt;br&gt;&lt;b&gt;IState&lt;/b&gt;" style="swimlane;fontStyle=0;align=center;verticalAlign=top;childLayout=stackLayout;horizontal=1;startSize=55;horizontalStack=0;resizeParent=1;resizeParentMax=0;resizeLast=0;collapsible=0;marginBottom=0;html=1;strokeWidth=1;fontSize=15;" vertex="1" parent="1">
                    <mxGeometry x="90" y="327.5" width="190" height="160" as="geometry"/>
                </mxCell>
                <mxCell id="bVlOLT0SivNGjFb0DIh4-12" value="" style="line;strokeWidth=1;fillColor=none;align=left;verticalAlign=middle;spacingTop=-1;spacingLeft=3;spacingRight=3;rotatable=0;labelPosition=right;points=[];portConstraint=eastwest;fontSize=15;" vertex="1" parent="bVlOLT0SivNGjFb0DIh4-7">
                    <mxGeometry y="55" width="190" height="8" as="geometry"/>
                </mxCell>
                <mxCell id="bVlOLT0SivNGjFb0DIh4-13" value="operations" style="text;html=1;strokeColor=none;fillColor=none;align=center;verticalAlign=middle;spacingLeft=4;spacingRight=4;overflow=hidden;rotatable=0;points=[[0,0.5],[1,0.5]];portConstraint=eastwest;strokeWidth=6;fontSize=15;" vertex="1" parent="bVlOLT0SivNGjFb0DIh4-7">
                    <mxGeometry y="63" width="190" height="20" as="geometry"/>
                </mxCell>
                <mxCell id="bVlOLT0SivNGjFb0DIh4-14" value="+ onEnter(): void&lt;br&gt;+ onUpdate(dt: number)&lt;br&gt;+ onExit(): void" style="text;html=1;strokeColor=none;fillColor=none;align=left;verticalAlign=middle;spacingLeft=4;spacingRight=4;overflow=hidden;rotatable=0;points=[[0,0.5],[1,0.5]];portConstraint=eastwest;strokeWidth=6;fontSize=15;" vertex="1" parent="bVlOLT0SivNGjFb0DIh4-7">
                    <mxGeometry y="83" width="190" height="77" as="geometry"/>
                </mxCell>
                <mxCell id="RChL0rmfqt_RDgI9F9v7-1" value="&amp;lt;&amp;lt;use&amp;gt;&amp;gt;" style="endArrow=open;startArrow=none;endFill=0;startFill=0;endSize=8;html=1;verticalAlign=bottom;dashed=1;labelBackgroundColor=none;fontSize=15;" edge="1" parent="1" source="bVlOLT0SivNGjFb0DIh4-1" target="bVlOLT0SivNGjFb0DIh4-7">
                    <mxGeometry x="0.002" width="160" relative="1" as="geometry">
                        <mxPoint x="310" y="250" as="sourcePoint"/>
                        <mxPoint x="470" y="250" as="targetPoint"/>
                        <mxPoint as="offset"/>
                    </mxGeometry>
                </mxCell>
                <mxCell id="bz_esxmNt19Y2VVyyJpp-1" value="Ball" style="html=1;align=center;verticalAlign=top;rounded=1;absoluteArcSize=1;arcSize=10;dashed=0;fontSize=15;" vertex="1" parent="1">
                    <mxGeometry x="280" y="70" width="140" height="50" as="geometry"/>
                </mxCell>
                <mxCell id="bz_esxmNt19Y2VVyyJpp-2" value="Star" style="html=1;align=center;verticalAlign=top;rounded=1;absoluteArcSize=1;arcSize=10;dashed=0;fontSize=15;" vertex="1" parent="1">
                    <mxGeometry x="480" y="70" width="140" height="50" as="geometry"/>
                </mxCell>
                <mxCell id="bz_esxmNt19Y2VVyyJpp-3" value="Basket" style="html=1;align=center;verticalAlign=top;rounded=1;absoluteArcSize=1;arcSize=10;dashed=0;fontSize=15;" vertex="1" parent="1">
                    <mxGeometry x="670" y="70" width="140" height="50" as="geometry"/>
                </mxCell>
                <mxCell id="bz_esxmNt19Y2VVyyJpp-5" value="&amp;lt;&amp;lt;use&amp;gt;&amp;gt;" style="endArrow=open;startArrow=none;endFill=0;startFill=0;endSize=8;html=1;verticalAlign=bottom;dashed=1;labelBackgroundColor=none;fontSize=15;" edge="1" parent="1" source="bz_esxmNt19Y2VVyyJpp-1" target="bVlOLT0SivNGjFb0DIh4-1">
                    <mxGeometry x="0.002" width="160" relative="1" as="geometry">
                        <mxPoint x="300" y="180" as="sourcePoint"/>
                        <mxPoint x="230" y="310.73529411764696" as="targetPoint"/>
                        <mxPoint as="offset"/>
                    </mxGeometry>
                </mxCell>
                <mxCell id="bz_esxmNt19Y2VVyyJpp-6" value="&amp;lt;&amp;lt;use&amp;gt;&amp;gt;" style="endArrow=open;startArrow=none;endFill=0;startFill=0;endSize=8;html=1;verticalAlign=bottom;dashed=1;labelBackgroundColor=none;fontSize=15;" edge="1" parent="1" source="bz_esxmNt19Y2VVyyJpp-2" target="bVlOLT0SivNGjFb0DIh4-1">
                    <mxGeometry x="0.002" width="160" relative="1" as="geometry">
                        <mxPoint x="376" y="130" as="sourcePoint"/>
                        <mxPoint x="472" y="280" as="targetPoint"/>
                        <mxPoint as="offset"/>
                    </mxGeometry>
                </mxCell>
                <mxCell id="bz_esxmNt19Y2VVyyJpp-7" value="&amp;lt;&amp;lt;use&amp;gt;&amp;gt;" style="endArrow=open;startArrow=none;endFill=0;startFill=0;endSize=8;html=1;verticalAlign=bottom;dashed=1;labelBackgroundColor=none;fontSize=15;" edge="1" parent="1" source="bz_esxmNt19Y2VVyyJpp-3" target="bVlOLT0SivNGjFb0DIh4-1">
                    <mxGeometry x="0.002" width="160" relative="1" as="geometry">
                        <mxPoint x="560" y="130" as="sourcePoint"/>
                        <mxPoint x="560" y="280" as="targetPoint"/>
                        <mxPoint as="offset"/>
                    </mxGeometry>
                </mxCell>
            </root>
        </mxGraphModel>
    </diagram>
</mxfile>